<?xml version="1.0" encoding="iso-8859-1"?>
<!-- Generator: Adobe Illustrator 19.0.0, SVG Export Plug-In . SVG Version: 6.00 Build 0)  -->
<svg version="1.1" id="Layer_1" xmlns="http://www.w3.org/2000/svg" xmlns:xlink="http://www.w3.org/1999/xlink" x="0px" y="0px"
	 viewBox="0 0 460 460" style="enable-background:new 0 0 460 460;" xml:space="preserve">
<g>
	<path style="fill:#273B7A;" d="M230,0C102.974,0,0,102.975,0,230c0,121.066,93.539,220.285,212.288,229.328L446.114,151.11
		C413.921,62.942,329.311,0,230,0z"/>
	<path style="fill:#121149;" d="M460,230c0-27.715-4.904-54.283-13.888-78.888L392.79,98L73.085,320.125l139.203,139.203
		C218.134,459.773,224.04,460,230,460C357.025,460,460,357.025,460,230z"/>
	<rect x="180" y="315.996" style="fill:#C2FBFF;" width="100" height="50"/>
	<polygon style="fill:#FFFFFF;" points="230,164.203 240,286 67.21,276 67.21,194.755 	"/>
	<polygon style="fill:#C2FBFF;" points="392.79,194.755 392.79,276 230,286 230,164 	"/>
	<polygon style="fill:#FEE187;" points="230,356 240,366 230,376 128.922,376 128.922,356 	"/>
	<rect x="230" y="356" style="fill:#FFC61B;" width="101.078" height="20"/>
	<path style="fill:#FEE187;" d="M230,276l10,25l-10,25H87.21c-11,0-20-9-20-20v-30H230z"/>
	<path style="fill:#FFC61B;" d="M392.79,276v30c0,11-9,20-20,20H230v-50H392.79z"/>
	<polygon style="fill:#C2001B;" points="392.79,98 392.79,194.755 352.093,205.847 311.395,194.755 289.211,140.73 311.395,98 	"/>
	<polygon style="fill:#FF0F27;" points="311.395,98 311.395,194.755 270.698,205.847 230,194.755 207.816,140.73 230,98 	"/>
	<polygon style="fill:#C2001B;" points="230,98 230,194.755 189.303,205.847 148.605,194.755 126.421,140.73 148.605,98 	"/>
	<polygon style="fill:#FF0F27;" points="148.605,98 148.605,194.755 107.908,205.847 67.21,194.755 67.21,98 	"/>
	<path style="fill:#940030;" d="M148.605,194.755H230c0,22.473-18.225,40.742-40.698,40.742S148.605,217.228,148.605,194.755z"/>
	<path style="fill:#940030;" d="M311.395,194.755h81.395c0,10.615-4.071,20.299-10.737,27.553
		c-7.432,8.108-18.103,13.189-29.96,13.189C329.62,235.497,311.395,217.228,311.395,194.755z"/>
	<path style="fill:#C2001B;" d="M67.21,194.755h81.395c0,22.473-18.225,40.742-40.698,40.742c-11.858,0-22.528-5.08-29.96-13.189
		C71.281,215.054,67.21,205.37,67.21,194.755z"/>
	<path style="fill:#C2001B;" d="M230,194.755h81.395c0,22.473-18.225,40.742-40.697,40.742C248.225,235.497,230,217.228,230,194.755
		z"/>
</g>
<g>
</g>
<g>
</g>
<g>
</g>
<g>
</g>
<g>
</g>
<g>
</g>
<g>
</g>
<g>
</g>
<g>
</g>
<g>
</g>
<g>
</g>
<g>
</g>
<g>
</g>
<g>
</g>
<g>
</g>
</svg>
